# xmcd CD database file
#
# Track frame offsets:
#	183
#	26483
#	43913
#	56188
#	62070
#	71980
#	111098
#	127680
#	149700
#	173413
#	189458
#	202728
#	244048
#
# Disc length: 3634 seconds
#
# Revision: 18
# Processed by: cddbd v1.5.2PL0 Copyright (c) Steve Scherf et al.
# Submitted via: CDex 1.99.1
#
DISCID=bc0e300d
DTITLE=Queen - Live at Wembley '86 [CD1)
DYEAR=1992
DGENRE=Rock
TTITLE0=One vision
TTITLE1=Tie your mother down
TTITLE2=In the lap of the gods
TTITLE3=Seven seas of rhye
TTITLE4=Tear it up
TTITLE5=A kind of magic
TTITLE6=Under pressure
TTITLE7=Another one bites the dust
TTITLE8=Who wants to live forever
TTITLE9=I want to break free
TTITLE10=Impromptu
TTITLE11=Brighton rock solo
TTITLE12=Now I'm here
EXTD=YEAR: 1992
EXTT0=
EXTT1=
EXTT2=
EXTT3=
EXTT4=
EXTT5=
EXTT6=
EXTT7=
EXTT8=
EXTT9=
EXTT10=
EXTT11=
EXTT12=
PLAYORDER=
